<svg xmlns="http://www.w3.org/2000/svg" viewBox="0 0 282 203" width="282" height="203">
  <defs>
    <linearGradient id="logoGradient" x1="0" y1="0" x2="282" y2="203" gradientUnits="userSpaceOnUse">
      <stop offset="0%" stop-color="#d08f04"/>
      <stop offset="100%" stop-color="#faf3ac"/>
    </linearGradient>
  </defs>

  <path id="petal1" fill="url(#logoGradient)" d="m188.08 92.36c7.37-2.27 14.52-3.84 21.12-4.91-0.28-11.91-1.87-21.75-3.02-27.41-4.72 1.75-12.35 4.9-21.02 9.63 1.44 5.61 2.41 11.44 2.77 17.44q0.16 2.64 0.15 5.25z"/>
  <path id="petal2" fill="url(#logoGradient)" d="m215.9 138.49c7.1-14.36 11.03-28.48 12.93-38.07-26.07 1.13-82.41-4.78-101.8 71.69-1.3 5.15-3.69 12.36-5.63 17.86 5.98-0.83 63.76 10.61 94.5-51.48z"/>
  <path id="petal3" fill="url(#logoGradient)" d="m227.72 136.97q-1.36 3.02-2.9 6.06c-11.4 22.41-26.95 38.03-46.44 46.77 55.7 6.45 102.56-28 102.56-28 0 0-21.87-16.51-53.22-24.83z"/>
  <path id="petal4" fill="url(#logoGradient)" d="m134.06 126.69c10.22-12.3 23.55-22.04 39.93-29.14q1.97-0.85 3.93-1.62 0.25-4.06 0.02-8.18c-2.13-36.25-30.5-66.84-40.32-76.39-6.24 6.24-20.06 21.33-29.53 41.13-7.46 15.58-10.72 30.63-9.84 45.07 14.83 7.26 26.79 17.01 35.81 29.13z"/>
  <path id="petal5" fill="url(#logoGradient)" d="m49.17 140.44q-0.33-0.64-0.65-1.29c-27.67 8.85-26.22 7.92-45.71 22.65 0 0 45.31 33.31 99.77 28.29-22.53-8.48-40.46-25.13-53.41-49.65z"/>
  <path id="petal6" fill="url(#logoGradient)" d="m44.54 98.41c2.07 9.41 6.08 23.32 13.49 37.35 13.03 24.67 31.48 40.53 54.88 47.19 0.54-1.49 3.7-26.7 15.23-45.98-18.53-33.61-63.12-38.11-83.6-38.56z"/>
  <path id="petal7" fill="url(#logoGradient)" d="m91.01 70.31c-9.16-5.11-17.26-8.45-22.2-10.28-1.11 5.55-2.66 15.13-3 26.7 7.18 1.47 14.78 3.54 22.4 6.46q-0.06-11.28 2.8-22.88z"/>
</svg>

